<mxfile host="app.diagrams.net" modified="2022-11-10T14:26:02.759Z" agent="5.0 (Windows NT 10.0; Win64; x64) AppleWebKit/537.36 (KHTML, like Gecko) Chrome/107.0.0.0 Safari/537.36" etag="-zUwOLzjIxthyrQyKYmG" version="20.5.3" type="github">
  <diagram id="LgDQjIBUbLqlR61NqwHW" name="第 1 页">
    <mxGraphModel dx="1038" dy="585" grid="1" gridSize="10" guides="1" tooltips="1" connect="1" arrows="1" fold="1" page="1" pageScale="1" pageWidth="827" pageHeight="1169" math="0" shadow="0">
      <root>
        <mxCell id="0" />
        <mxCell id="1" parent="0" />
        <mxCell id="1WP3CM0deMCVspZEYa83-1" value="&lt;font style=&quot;font-size: 18px;&quot;&gt;if(set.contains(0))&lt;br&gt;set.add(1);&lt;/font&gt;" style="text;html=1;strokeColor=none;fillColor=none;align=center;verticalAlign=middle;whiteSpace=wrap;rounded=0;" vertex="1" parent="1">
          <mxGeometry x="90" y="296.25" width="160" height="70" as="geometry" />
        </mxCell>
        <mxCell id="1WP3CM0deMCVspZEYa83-2" value="" style="shape=flexArrow;endArrow=classic;html=1;rounded=0;fontSize=18;" edge="1" parent="1">
          <mxGeometry width="50" height="50" relative="1" as="geometry">
            <mxPoint x="259" y="333" as="sourcePoint" />
            <mxPoint x="339" y="333" as="targetPoint" />
          </mxGeometry>
        </mxCell>
        <mxCell id="1WP3CM0deMCVspZEYa83-3" value="bitVector: 01000010" style="text;html=1;align=center;verticalAlign=middle;resizable=0;points=[];autosize=1;strokeColor=none;fillColor=none;fontSize=18;" vertex="1" parent="1">
          <mxGeometry x="476" y="60" width="180" height="40" as="geometry" />
        </mxCell>
        <mxCell id="1WP3CM0deMCVspZEYa83-13" style="rounded=0;orthogonalLoop=1;jettySize=auto;html=1;exitX=0.5;exitY=1;exitDx=0;exitDy=0;entryX=0.5;entryY=0;entryDx=0;entryDy=0;fontSize=18;" edge="1" parent="1" source="1WP3CM0deMCVspZEYa83-8" target="1WP3CM0deMCVspZEYa83-12">
          <mxGeometry relative="1" as="geometry" />
        </mxCell>
        <mxCell id="1WP3CM0deMCVspZEYa83-8" value="01000010" style="rounded=0;whiteSpace=wrap;html=1;fontSize=18;" vertex="1" parent="1">
          <mxGeometry x="390" y="130" width="86" height="35" as="geometry" />
        </mxCell>
        <mxCell id="1WP3CM0deMCVspZEYa83-14" style="rounded=0;orthogonalLoop=1;jettySize=auto;html=1;exitX=0.5;exitY=1;exitDx=0;exitDy=0;entryX=0.5;entryY=0;entryDx=0;entryDy=0;fontSize=18;" edge="1" parent="1" source="1WP3CM0deMCVspZEYa83-9" target="1WP3CM0deMCVspZEYa83-12">
          <mxGeometry relative="1" as="geometry" />
        </mxCell>
        <mxCell id="1WP3CM0deMCVspZEYa83-9" value="0000001" style="rounded=0;whiteSpace=wrap;html=1;fontSize=18;" vertex="1" parent="1">
          <mxGeometry x="500" y="130" width="86" height="35" as="geometry" />
        </mxCell>
        <mxCell id="1WP3CM0deMCVspZEYa83-16" style="edgeStyle=none;rounded=0;orthogonalLoop=1;jettySize=auto;html=1;exitX=0.5;exitY=1;exitDx=0;exitDy=0;entryX=0.5;entryY=0;entryDx=0;entryDy=0;fontSize=18;" edge="1" parent="1" source="1WP3CM0deMCVspZEYa83-12" target="1WP3CM0deMCVspZEYa83-15">
          <mxGeometry relative="1" as="geometry" />
        </mxCell>
        <mxCell id="1WP3CM0deMCVspZEYa83-12" value="&amp;amp;" style="ellipse;whiteSpace=wrap;html=1;aspect=fixed;fontSize=18;" vertex="1" parent="1">
          <mxGeometry x="470" y="190" width="40" height="40" as="geometry" />
        </mxCell>
        <mxCell id="1WP3CM0deMCVspZEYa83-19" style="edgeStyle=none;rounded=0;orthogonalLoop=1;jettySize=auto;html=1;exitX=0.5;exitY=1;exitDx=0;exitDy=0;entryX=0.5;entryY=0;entryDx=0;entryDy=0;fontSize=18;" edge="1" parent="1" source="1WP3CM0deMCVspZEYa83-15" target="1WP3CM0deMCVspZEYa83-18">
          <mxGeometry relative="1" as="geometry" />
        </mxCell>
        <mxCell id="1WP3CM0deMCVspZEYa83-15" value="00000000" style="rounded=0;whiteSpace=wrap;html=1;fontSize=18;" vertex="1" parent="1">
          <mxGeometry x="447" y="250" width="86" height="35" as="geometry" />
        </mxCell>
        <mxCell id="1WP3CM0deMCVspZEYa83-20" style="edgeStyle=none;rounded=0;orthogonalLoop=1;jettySize=auto;html=1;exitX=0.5;exitY=1;exitDx=0;exitDy=0;entryX=0.5;entryY=0;entryDx=0;entryDy=0;fontSize=18;" edge="1" parent="1" source="1WP3CM0deMCVspZEYa83-17" target="1WP3CM0deMCVspZEYa83-18">
          <mxGeometry relative="1" as="geometry" />
        </mxCell>
        <mxCell id="1WP3CM0deMCVspZEYa83-17" value="1" style="rounded=0;whiteSpace=wrap;html=1;fontSize=18;" vertex="1" parent="1">
          <mxGeometry x="580" y="252.5" width="40" height="30" as="geometry" />
        </mxCell>
        <mxCell id="1WP3CM0deMCVspZEYa83-22" style="edgeStyle=none;rounded=0;orthogonalLoop=1;jettySize=auto;html=1;exitX=0.5;exitY=1;exitDx=0;exitDy=0;fontSize=18;" edge="1" parent="1" source="1WP3CM0deMCVspZEYa83-18">
          <mxGeometry relative="1" as="geometry">
            <mxPoint x="553" y="360" as="targetPoint" />
          </mxGeometry>
        </mxCell>
        <mxCell id="1WP3CM0deMCVspZEYa83-24" style="edgeStyle=none;rounded=0;orthogonalLoop=1;jettySize=auto;html=1;exitX=0.5;exitY=1;exitDx=0;exitDy=0;entryX=0.5;entryY=0;entryDx=0;entryDy=0;fontSize=18;" edge="1" parent="1" source="1WP3CM0deMCVspZEYa83-18" target="1WP3CM0deMCVspZEYa83-23">
          <mxGeometry relative="1" as="geometry" />
        </mxCell>
        <mxCell id="1WP3CM0deMCVspZEYa83-18" value="&amp;lt;&amp;lt;" style="ellipse;whiteSpace=wrap;html=1;aspect=fixed;fontSize=18;" vertex="1" parent="1">
          <mxGeometry x="533" y="320" width="40" height="40" as="geometry" />
        </mxCell>
        <mxCell id="1WP3CM0deMCVspZEYa83-27" style="edgeStyle=none;rounded=0;orthogonalLoop=1;jettySize=auto;html=1;exitX=0.5;exitY=1;exitDx=0;exitDy=0;entryX=0.5;entryY=0;entryDx=0;entryDy=0;fontSize=18;" edge="1" parent="1" source="1WP3CM0deMCVspZEYa83-23" target="1WP3CM0deMCVspZEYa83-26">
          <mxGeometry relative="1" as="geometry" />
        </mxCell>
        <mxCell id="1WP3CM0deMCVspZEYa83-23" value="00000000" style="rounded=0;whiteSpace=wrap;html=1;fontSize=18;" vertex="1" parent="1">
          <mxGeometry x="510" y="380" width="86" height="35" as="geometry" />
        </mxCell>
        <mxCell id="1WP3CM0deMCVspZEYa83-28" style="edgeStyle=none;rounded=0;orthogonalLoop=1;jettySize=auto;html=1;exitX=0.5;exitY=1;exitDx=0;exitDy=0;entryX=0.5;entryY=0;entryDx=0;entryDy=0;fontSize=18;" edge="1" parent="1" source="1WP3CM0deMCVspZEYa83-25" target="1WP3CM0deMCVspZEYa83-26">
          <mxGeometry relative="1" as="geometry" />
        </mxCell>
        <mxCell id="1WP3CM0deMCVspZEYa83-25" value="01000010" style="rounded=0;whiteSpace=wrap;html=1;fontSize=18;" vertex="1" parent="1">
          <mxGeometry x="620" y="380" width="86" height="35" as="geometry" />
        </mxCell>
        <mxCell id="1WP3CM0deMCVspZEYa83-30" style="edgeStyle=none;rounded=0;orthogonalLoop=1;jettySize=auto;html=1;exitX=0.5;exitY=1;exitDx=0;exitDy=0;fontSize=18;" edge="1" parent="1" source="1WP3CM0deMCVspZEYa83-26">
          <mxGeometry relative="1" as="geometry">
            <mxPoint x="606" y="480" as="targetPoint" />
          </mxGeometry>
        </mxCell>
        <mxCell id="1WP3CM0deMCVspZEYa83-32" style="edgeStyle=none;rounded=0;orthogonalLoop=1;jettySize=auto;html=1;exitX=0.5;exitY=1;exitDx=0;exitDy=0;entryX=0.5;entryY=0;entryDx=0;entryDy=0;fontSize=18;" edge="1" parent="1" source="1WP3CM0deMCVspZEYa83-26" target="1WP3CM0deMCVspZEYa83-31">
          <mxGeometry relative="1" as="geometry" />
        </mxCell>
        <mxCell id="1WP3CM0deMCVspZEYa83-26" value="|" style="ellipse;whiteSpace=wrap;html=1;aspect=fixed;fontSize=18;" vertex="1" parent="1">
          <mxGeometry x="586" y="440" width="40" height="40" as="geometry" />
        </mxCell>
        <mxCell id="1WP3CM0deMCVspZEYa83-31" value="01000010" style="rounded=0;whiteSpace=wrap;html=1;fontSize=18;" vertex="1" parent="1">
          <mxGeometry x="563" y="500" width="86" height="35" as="geometry" />
        </mxCell>
        <mxCell id="1WP3CM0deMCVspZEYa83-33" value="" style="rounded=0;whiteSpace=wrap;html=1;fontSize=18;fillColor=none;strokeColor=#FF0000;dashed=1;" vertex="1" parent="1">
          <mxGeometry x="350" y="105" width="240" height="195" as="geometry" />
        </mxCell>
        <mxCell id="1WP3CM0deMCVspZEYa83-34" style="edgeStyle=none;rounded=0;orthogonalLoop=1;jettySize=auto;html=1;exitX=0;exitY=1;exitDx=0;exitDy=0;fontSize=18;" edge="1" parent="1" source="1WP3CM0deMCVspZEYa83-33" target="1WP3CM0deMCVspZEYa83-33">
          <mxGeometry relative="1" as="geometry" />
        </mxCell>
        <mxCell id="1WP3CM0deMCVspZEYa83-35" style="edgeStyle=none;rounded=0;orthogonalLoop=1;jettySize=auto;html=1;exitX=0;exitY=0.5;exitDx=0;exitDy=0;fontSize=18;" edge="1" parent="1" source="1WP3CM0deMCVspZEYa83-33" target="1WP3CM0deMCVspZEYa83-33">
          <mxGeometry relative="1" as="geometry" />
        </mxCell>
        <mxCell id="1WP3CM0deMCVspZEYa83-36" value="&lt;font style=&quot;font-size: 14px;&quot; color=&quot;#ff0000&quot;&gt;contains(0)&lt;/font&gt;" style="text;html=1;align=center;verticalAlign=middle;resizable=0;points=[];autosize=1;strokeColor=none;fillColor=none;fontSize=18;" vertex="1" parent="1">
          <mxGeometry x="350" y="182.5" width="90" height="40" as="geometry" />
        </mxCell>
        <mxCell id="1WP3CM0deMCVspZEYa83-37" value="" style="rounded=0;whiteSpace=wrap;html=1;fontSize=18;fillColor=none;strokeColor=#FF8000;dashed=1;" vertex="1" parent="1">
          <mxGeometry x="400" y="240" width="230" height="187.5" as="geometry" />
        </mxCell>
        <mxCell id="1WP3CM0deMCVspZEYa83-38" value="&lt;font color=&quot;#ff8000&quot; style=&quot;font-size: 14px;&quot;&gt;offset between &lt;br&gt;0 and 1&lt;/font&gt;" style="text;html=1;align=center;verticalAlign=middle;resizable=0;points=[];autosize=1;strokeColor=none;fillColor=none;fontSize=18;" vertex="1" parent="1">
          <mxGeometry x="400" y="330" width="110" height="60" as="geometry" />
        </mxCell>
        <mxCell id="1WP3CM0deMCVspZEYa83-39" value="" style="rounded=0;whiteSpace=wrap;html=1;fontSize=18;fillColor=none;strokeColor=#0000CC;dashed=1;" vertex="1" parent="1">
          <mxGeometry x="500" y="366.25" width="230" height="187.5" as="geometry" />
        </mxCell>
        <mxCell id="1WP3CM0deMCVspZEYa83-40" value="&lt;font color=&quot;#0000cc&quot; style=&quot;font-size: 14px;&quot;&gt;add(1)&lt;/font&gt;" style="text;html=1;align=center;verticalAlign=middle;resizable=0;points=[];autosize=1;strokeColor=none;fillColor=none;fontSize=18;" vertex="1" parent="1">
          <mxGeometry x="660" y="460" width="60" height="40" as="geometry" />
        </mxCell>
      </root>
    </mxGraphModel>
  </diagram>
</mxfile>
